<svg version="1.1" id="Layer_1" xmlns="http://www.w3.org/2000/svg" xmlns:xlink="http://www.w3.org/1999/xlink" x="0px" y="0px"
	 width="100%" viewBox="0 0 500 500" enable-background="new 0 0 500 500" xml:space="preserve">
<path fill="#000000" opacity="1.000000" stroke="none" 
	d="
M220.000000,501.000000 
	C147.073135,501.000000 74.146278,501.000000 1.000000,501.000000 
	C1.000000,428.645935 1.000000,356.291626 1.280497,283.133667 
	C2.096253,283.552765 2.631511,284.775482 3.094378,286.418091 
	C4.643180,294.572784 6.264374,302.307617 7.934208,310.452820 
	C10.377453,319.241852 12.772056,327.620483 15.208420,336.359680 
	C18.129934,343.162140 21.009687,349.604065 23.942966,356.412598 
	C26.720402,362.317627 29.444311,367.855988 32.366978,373.704163 
	C36.338882,379.690094 40.112026,385.366272 43.939983,391.399323 
	C48.623970,397.850708 53.253143,403.945190 58.023643,410.355804 
	C67.093605,419.816956 76.022240,428.961975 85.083557,438.415283 
	C99.718742,451.817169 115.703064,462.772186 133.325439,471.991699 
	C141.263931,475.766235 148.743820,479.701630 156.515472,482.936035 
	C176.369492,491.198975 196.901123,497.024597 218.400726,499.099915 
	C218.989471,499.156769 219.469345,500.341309 220.000000,501.000000 
z"/>
<path fill="#000000" opacity="1.000000" stroke="none" 
	d="
M0.999999,220.000000 
	C1.000000,147.073120 1.000000,74.146248 1.000000,1.000000 
	C73.354080,1.000000 145.708374,1.000000 218.871063,1.330595 
	C218.843979,2.103215 218.055710,2.757707 217.165939,2.955423 
	C203.585938,5.973048 189.874084,8.479472 176.430725,12.010376 
	C157.034988,17.104683 139.128647,25.991537 121.986694,36.170525 
	C112.833061,41.606007 104.603195,48.597164 95.604141,54.938499 
	C73.513817,71.702103 55.485420,91.776627 40.571457,115.113159 
	C38.761040,117.756912 37.037312,120.139282 35.804035,122.753059 
	C28.859653,137.470749 22.033224,152.244080 14.996967,167.342102 
	C13.033562,173.143845 10.879124,178.514450 9.529613,184.080246 
	C7.451972,192.649063 5.926481,201.351761 4.081352,210.408920 
	C3.662665,212.972504 3.487406,215.167084 2.927964,217.258911 
	C2.657018,218.272018 1.665354,219.092377 0.999999,220.000000 
z"/>
<path fill="#000000" opacity="1.000000" stroke="none" 
	d="
M501.000000,282.000000 
	C501.000000,354.926849 501.000000,427.853729 501.000000,501.000000 
	C428.645935,501.000000 356.291626,501.000000 283.194336,500.630341 
	C289.206360,498.843445 295.947479,497.355865 302.718781,496.021515 
	C328.003662,491.038727 351.683807,481.824585 374.370789,468.960266 
	C378.444427,466.543915 382.431610,464.588684 385.900330,461.951477 
	C397.052185,453.472992 408.012573,444.742676 419.362000,435.967896 
	C420.861908,434.972870 422.235657,434.292572 423.201202,433.238434 
	C430.552246,425.212708 437.823547,417.113953 445.431183,408.899780 
	C449.533142,403.522003 453.323578,398.282318 457.421753,392.883759 
	C461.502350,386.519196 465.275269,380.313538 469.366455,373.939758 
	C472.828033,367.195160 475.971283,360.618652 479.435547,353.862427 
	C482.115479,347.788177 484.474396,341.893646 486.911804,335.617004 
	C489.604614,325.822510 492.218903,316.410126 495.016357,306.637756 
	C496.467072,299.157562 497.675629,292.025848 499.065887,284.929779 
	C499.274017,283.867645 500.334076,282.972443 501.000000,282.000000 
z"/>
<path fill="#000000" opacity="1.000000" stroke="none" 
	d="
M282.000000,1.000003 
	C354.926849,1.000000 427.853729,1.000000 501.000000,1.000000 
	C501.000000,73.354080 501.000000,145.708374 500.661774,218.864639 
	C499.883820,218.664032 499.254791,217.701416 499.033447,216.652756 
	C496.596832,205.108383 494.223602,193.550629 491.773590,181.618683 
	C484.633331,157.705429 474.946259,135.373291 460.967346,114.633957 
	C447.755768,93.678848 431.529480,75.794342 413.194305,59.770741 
	C411.038391,57.886631 408.441772,56.506779 405.916443,54.582123 
	C394.643677,46.772655 383.956543,38.464050 372.273621,31.938139 
	C344.771454,16.575869 315.452271,6.196606 283.883331,2.913513 
	C283.196625,2.842098 282.625183,1.662598 282.000000,1.000003 
z"/>
<path fill="#00C1FF" opacity="1.000000" stroke="none" 
	d="
M281.531342,1.000003 
	C282.625183,1.662598 283.196625,2.842098 283.883331,2.913513 
	C315.452271,6.196606 344.771454,16.575869 372.273621,31.938139 
	C383.956543,38.464050 394.643677,46.772655 405.705139,54.892441 
	C402.489075,56.342033 399.352905,57.862202 396.213226,57.869446 
	C386.585663,57.891655 376.958710,57.197891 367.327515,57.059841 
	C362.702881,56.993553 358.068420,57.783958 353.439911,57.767597 
	C347.524689,57.746693 341.609131,57.053555 335.697021,57.097233 
	C325.793793,57.170399 315.894318,57.765511 305.991211,57.829674 
	C295.240326,57.899342 284.487061,57.620205 273.734985,57.480026 
	C267.284210,57.395924 260.831848,57.140495 254.383728,57.226440 
	C246.640442,57.329655 238.899139,57.967781 231.160187,57.914028 
	C220.917007,57.842880 210.677261,57.087135 200.435394,57.072243 
	C191.524597,57.059284 182.615204,57.837101 173.701019,57.958511 
	C161.509552,58.124561 149.314133,58.000641 137.120407,57.999771 
	C125.191040,57.998920 113.258705,58.126816 101.335449,57.856041 
	C99.520889,57.814835 97.748367,55.922398 95.956406,54.886208 
	C104.603195,48.597164 112.833061,41.606007 121.986694,36.170525 
	C139.128647,25.991537 157.034988,17.104683 176.430725,12.010376 
	C189.874084,8.479472 203.585938,5.973048 217.165939,2.955423 
	C218.055710,2.757707 218.843979,2.103215 219.339722,1.330595 
	C239.687561,1.000000 260.375122,1.000000 281.531342,1.000003 
z"/>
<path fill="#00A2FF" opacity="1.000000" stroke="none" 
	d="
M491.833191,181.996490 
	C494.223602,193.550629 496.596832,205.108383 499.033447,216.652756 
	C499.254791,217.701416 499.883820,218.664032 500.661774,219.333298 
	C501.000000,225.687637 501.000000,232.375290 500.581696,239.531281 
	C491.768738,239.964539 483.372803,240.011002 474.979767,239.876175 
	C460.510986,239.643753 446.044586,239.111038 431.576111,239.068207 
	C422.298584,239.040741 413.020020,239.694336 403.740143,239.985107 
	C399.646301,240.113373 395.547424,240.162155 391.451935,240.124969 
	C389.051544,240.103180 386.653320,239.841385 384.254150,239.687012 
	C382.128967,239.550293 379.999420,239.253540 377.879730,239.312500 
	C374.576141,239.404419 371.273895,239.988358 367.980652,239.917816 
	C360.404541,239.755478 352.834198,239.324448 345.181641,238.539673 
	C345.154968,219.719101 345.208191,201.361359 345.709290,183.003540 
	C354.816132,181.998917 363.646393,186.173080 372.225372,182.146378 
	C372.742767,181.903519 373.525970,182.272354 374.186676,182.282791 
	C386.895172,182.483490 399.603729,182.678925 412.312531,182.859375 
	C414.413544,182.889221 416.515717,182.827789 418.617218,182.836807 
	C421.667664,182.849915 424.718658,182.938782 427.768097,182.897507 
	C429.551880,182.873367 431.382385,182.328522 433.107208,182.585754 
	C442.016541,183.914520 450.871674,184.728317 459.769379,182.373596 
	C461.632751,181.880463 463.767822,181.943420 465.697418,182.251938 
	C474.437469,183.649292 483.138153,183.873016 491.833191,181.996490 
z"/>
<path fill="#009FFF" opacity="1.000000" stroke="none" 
	d="
M0.999999,220.468658 
	C1.665354,219.092377 2.657018,218.272018 2.927964,217.258911 
	C3.487406,215.167084 3.662665,212.972504 4.472232,210.416122 
	C15.143587,210.336349 25.339720,210.951721 35.533504,210.915024 
	C49.910965,210.863266 64.285538,210.232498 78.663864,210.060165 
	C82.908463,210.009293 87.161057,210.922470 91.410988,210.931778 
	C95.374039,210.940475 99.341118,210.034836 103.301613,210.070251 
	C109.269104,210.123611 115.229630,210.842178 121.198074,210.926270 
	C132.407913,211.084244 143.621323,210.990738 154.902573,211.465820 
	C154.925690,225.953781 154.879486,239.977707 154.377655,254.001251 
	C142.856583,253.670639 131.790710,253.064499 120.725822,253.082367 
	C107.841843,253.103180 94.960228,253.764206 82.074760,253.969299 
	C72.306465,254.124786 62.533714,254.008575 52.762962,253.998917 
	C47.838211,253.994049 42.913441,253.965271 37.988773,253.933151 
	C30.613232,253.885056 23.234123,253.661407 15.863550,253.826248 
	C10.902765,253.937210 5.954093,254.589767 1.000000,255.000000 
	C1.000000,243.645767 1.000000,232.291550 0.999999,220.468658 
z"/>
<path fill="#009AFF" opacity="1.000000" stroke="none" 
	d="
M345.261536,239.002472 
	C352.834198,239.324448 360.404541,239.755478 367.980652,239.917816 
	C371.273895,239.988358 374.576141,239.404419 377.879730,239.312500 
	C379.999420,239.253540 382.128967,239.550293 384.254150,239.687012 
	C386.653320,239.841385 389.051544,240.103180 391.451935,240.124969 
	C395.547424,240.162155 399.646301,240.113373 403.740143,239.985107 
	C413.020020,239.694336 422.298584,239.040741 431.576111,239.068207 
	C446.044586,239.111038 460.510986,239.643753 474.979767,239.876175 
	C483.372803,240.011002 491.768738,239.964539 500.581696,239.999817 
	C501.000000,251.687561 501.000000,263.375122 500.614380,275.500214 
	C498.750977,275.825500 497.270874,275.591370 495.795746,275.619446 
	C476.037598,275.995056 456.281342,276.639435 436.522186,276.738434 
	C420.151123,276.820465 403.776154,276.308990 387.404327,275.988190 
	C373.355988,275.712921 359.309631,275.335327 345.182495,274.540100 
	C345.155579,262.385620 345.208557,250.694046 345.261536,239.002472 
z"/>
<path fill="#0075FF" opacity="1.000000" stroke="none" 
	d="
M374.046936,469.109131 
	C351.683807,481.824585 328.003662,491.038727 302.718781,496.021515 
	C295.947479,497.355865 289.206360,498.843445 282.725708,500.630341 
	C262.312439,501.000000 241.624878,501.000000 220.468658,501.000000 
	C219.469345,500.341309 218.989471,499.156769 218.400726,499.099915 
	C196.901123,497.024597 176.369492,491.198975 156.515472,482.936035 
	C148.743820,479.701630 141.263931,475.766235 133.415466,471.655029 
	C135.478149,470.282776 137.716034,469.112762 140.094147,468.621460 
	C141.978882,468.232056 144.037842,468.774414 146.015381,468.728455 
	C151.264313,468.606506 156.512024,468.222351 161.758438,468.252594 
	C168.678284,468.292450 175.595261,468.732574 182.515579,468.808563 
	C190.275146,468.893799 198.037216,468.717316 205.797943,468.740051 
	C216.632126,468.771820 227.466354,468.958221 238.299957,468.917480 
	C241.935501,468.903809 245.586746,468.024780 249.200104,468.194672 
	C256.734375,468.548920 264.244293,469.397125 271.774139,469.891632 
	C273.016632,469.973236 274.296234,469.220184 275.582001,468.975342 
	C277.512787,468.607758 279.468933,468.057648 281.406006,468.089661 
	C295.281006,468.318756 309.152832,468.759644 323.028168,468.937042 
	C326.825806,468.985596 330.636169,468.058838 334.433502,468.110260 
	C345.404572,468.258759 356.371826,468.681549 367.340881,468.987030 
	C369.575623,469.049286 371.811554,469.069550 374.046936,469.109131 
z"/>
<path fill="#0098FF" opacity="1.000000" stroke="none" 
	d="
M1.000000,255.468658 
	C5.954093,254.589767 10.902765,253.937210 15.863550,253.826248 
	C23.234123,253.661407 30.613232,253.885056 37.988773,253.933151 
	C42.913441,253.965271 47.838211,253.994049 52.762962,253.998917 
	C62.533714,254.008575 72.306465,254.124786 82.074760,253.969299 
	C94.960228,253.764206 107.841843,253.103180 120.725822,253.082367 
	C131.790710,253.064499 142.856583,253.670639 154.447205,254.465256 
	C154.926056,265.620087 154.879730,276.310516 154.461365,286.976288 
	C151.008072,286.585510 147.933121,285.992371 144.844086,285.906677 
	C140.243637,285.779114 135.630768,286.143951 131.027649,286.058319 
	C123.058609,285.910126 115.089684,285.292328 107.126701,285.385254 
	C93.502380,285.544281 79.883438,286.358673 66.260803,286.397461 
	C57.231728,286.423187 48.201023,285.557617 39.168480,285.147491 
	C38.205200,285.103790 37.224369,285.437531 36.252247,285.599548 
	C33.516075,286.055481 30.774712,286.928741 28.045248,286.892639 
	C19.749929,286.782990 11.459251,286.322205 3.166767,285.998169 
	C2.631511,284.775482 2.096253,283.552765 1.280497,282.665039 
	C1.000000,273.979095 1.000000,264.958221 1.000000,255.468658 
z"/>
<path fill="#0095FF" opacity="1.000000" stroke="none" 
	d="
M345.262421,275.002991 
	C359.309631,275.335327 373.355988,275.712921 387.404327,275.988190 
	C403.776154,276.308990 420.151123,276.820465 436.522186,276.738434 
	C456.281342,276.639435 476.037598,275.995056 495.795746,275.619446 
	C497.270874,275.591370 498.750977,275.825500 500.614380,275.968872 
	C501.000000,277.714355 501.000000,279.428711 501.000000,281.571533 
	C500.334076,282.972443 499.274017,283.867645 499.065887,284.929779 
	C497.675629,292.025848 496.467072,299.157562 494.608307,306.669647 
	C485.297150,307.374329 476.579407,307.820129 467.856689,307.964050 
	C458.303070,308.121613 448.744690,307.970612 439.188721,308.019409 
	C436.395905,308.033661 433.593262,308.495911 430.814178,308.360809 
	C424.410767,308.049408 418.018646,307.119965 411.622711,307.127014 
	C400.585358,307.139191 389.548370,307.924316 378.511597,307.916931 
	C367.428253,307.909485 356.345276,307.330444 345.182068,306.539185 
	C345.155457,295.718658 345.208954,285.360809 345.262421,275.002991 
z"/>
<path fill="#007AFF" opacity="1.000000" stroke="none" 
	d="
M374.370789,468.960236 
	C371.811554,469.069550 369.575623,469.049286 367.340881,468.987030 
	C356.371826,468.681549 345.404572,468.258759 334.433502,468.110260 
	C330.636169,468.058838 326.825806,468.985596 323.028168,468.937042 
	C309.152832,468.759644 295.281006,468.318756 281.406006,468.089661 
	C279.468933,468.057648 277.512787,468.607758 275.582001,468.975342 
	C274.296234,469.220184 273.016632,469.973236 271.774139,469.891632 
	C264.244293,469.397125 256.734375,468.548920 249.200104,468.194672 
	C245.586746,468.024780 241.935501,468.903809 238.299957,468.917480 
	C227.466354,468.958221 216.632126,468.771820 205.797943,468.740051 
	C198.037216,468.717316 190.275146,468.893799 182.515579,468.808563 
	C175.595261,468.732574 168.678284,468.292450 161.758438,468.252594 
	C156.512024,468.222351 151.264313,468.606506 146.015381,468.728455 
	C144.037842,468.774414 141.978882,468.232056 140.094147,468.621460 
	C137.716034,469.112762 135.478149,470.282776 133.089752,471.496643 
	C115.703064,462.772186 99.718742,451.817169 85.310783,438.093781 
	C87.261589,436.976135 89.113060,436.088440 90.974892,436.066132 
	C102.038918,435.933502 113.106552,436.098175 124.170464,435.960785 
	C129.759186,435.891418 135.344788,435.114746 140.928009,435.157288 
	C150.789719,435.232391 160.646927,435.854431 170.508881,435.948853 
	C186.144104,436.098511 201.781769,435.980499 217.418167,436.037415 
	C219.395523,436.044617 221.383133,436.677582 223.346176,436.587738 
	C232.982620,436.146759 242.607758,435.397797 252.247299,435.121948 
	C255.152328,435.038788 258.092072,436.602631 261.013824,436.595093 
	C273.540558,436.562866 286.066101,436.083466 298.592957,436.043335 
	C309.350464,436.008881 320.109161,436.348572 330.867340,436.524628 
	C334.319733,436.581146 337.774384,436.753723 341.224030,436.682465 
	C351.434906,436.471619 361.642609,436.080292 371.854034,435.929840 
	C377.641022,435.844574 383.433289,436.187683 389.222565,436.167633 
	C396.600922,436.142120 403.978333,435.909424 411.356873,435.840210 
	C413.919128,435.816162 416.483429,436.013336 419.046814,436.109497 
	C408.012573,444.742676 397.052185,453.472992 385.900330,461.951477 
	C382.431610,464.588684 378.444427,466.543915 374.370789,468.960236 
z"/>
<path fill="#0080FF" opacity="1.000000" stroke="none" 
	d="
M419.362000,435.967896 
	C416.483429,436.013336 413.919128,435.816162 411.356873,435.840210 
	C403.978333,435.909424 396.600922,436.142120 389.222565,436.167633 
	C383.433289,436.187683 377.641022,435.844574 371.854034,435.929840 
	C361.642609,436.080292 351.434906,436.471619 341.224030,436.682465 
	C337.774384,436.753723 334.319733,436.581146 330.867340,436.524628 
	C320.109161,436.348572 309.350464,436.008881 298.592957,436.043335 
	C286.066101,436.083466 273.540558,436.562866 261.013824,436.595093 
	C258.092072,436.602631 255.152328,435.038788 252.247299,435.121948 
	C242.607758,435.397797 232.982620,436.146759 223.346176,436.587738 
	C221.383133,436.677582 219.395523,436.044617 217.418167,436.037415 
	C201.781769,435.980499 186.144104,436.098511 170.508881,435.948853 
	C160.646927,435.854431 150.789719,435.232391 140.928009,435.157288 
	C135.344788,435.114746 129.759186,435.891418 124.170464,435.960785 
	C113.106552,436.098175 102.038918,435.933502 90.974892,436.066132 
	C89.113060,436.088440 87.261589,436.976135 85.178101,437.785461 
	C76.022240,428.961975 67.093605,419.816956 58.427040,410.352112 
	C62.476269,409.851318 66.262978,409.660187 70.050728,409.492676 
	C72.865479,409.368134 75.682487,409.166565 78.496880,409.190247 
	C83.585579,409.233063 88.672447,409.460602 93.761192,409.535522 
	C103.827354,409.683746 113.894897,409.745026 123.960503,409.920532 
	C126.919212,409.972107 129.887222,410.564240 132.826355,410.417053 
	C137.421997,410.186951 141.996002,409.160980 146.580368,409.152954 
	C153.883209,409.140106 161.186234,409.707062 168.490631,409.991913 
	C176.567505,410.306915 184.645508,410.595154 192.724380,410.852783 
	C193.704880,410.884064 194.691345,410.592499 195.679123,410.553223 
	C204.218658,410.213715 212.762024,409.580200 221.298553,409.657990 
	C231.157104,409.747803 241.007828,410.767670 250.865738,410.835632 
	C260.764587,410.903900 270.667023,410.253265 280.570190,410.010406 
	C284.208832,409.921173 287.856812,410.216064 291.495697,410.130615 
	C305.267700,409.807404 319.036041,409.213409 332.809082,409.089752 
	C342.014130,409.007080 351.373138,410.700592 360.397827,409.538391 
	C373.633820,407.833771 386.729340,412.117676 399.927673,409.191620 
	C403.958771,408.297882 408.495453,409.988342 412.793884,409.936768 
	C423.571167,409.807404 434.344666,409.358582 445.119659,409.037903 
	C437.823547,417.113953 430.552246,425.212708 423.201202,433.238434 
	C422.235657,434.292572 420.861908,434.972870 419.362000,435.967896 
z"/>
<path fill="#008CFF" opacity="1.000000" stroke="none" 
	d="
M486.833313,335.999146 
	C484.474396,341.893646 482.115479,347.788177 479.001587,353.860413 
	C471.948090,354.357330 465.652191,354.775452 459.349609,354.943542 
	C457.053131,355.004761 454.738525,354.228088 452.436066,354.249634 
	C442.072906,354.346680 431.711609,354.721436 421.348877,354.753296 
	C408.361206,354.793243 395.372559,354.491089 382.384888,354.529205 
	C367.967499,354.571503 353.550964,354.885834 339.133484,354.948212 
	C336.334045,354.960327 333.283203,353.481842 330.774536,354.193451 
	C320.366730,357.145782 309.934265,354.613037 299.538391,354.896027 
	C284.585632,355.303101 269.612885,355.082092 254.650116,354.955902 
	C249.348190,354.911194 244.048706,354.073273 238.751373,354.107269 
	C231.337631,354.154785 223.926193,354.957153 216.515167,354.936340 
	C204.768097,354.903381 193.022598,354.435211 181.275528,354.196320 
	C177.332520,354.116119 173.384949,354.095490 169.442520,354.184174 
	C160.403564,354.387482 151.367706,354.745544 142.328186,354.903076 
	C136.417740,355.006104 130.499451,354.722015 124.591118,354.869537 
	C113.628128,355.143188 102.646057,356.222137 91.716896,355.800446 
	C82.482529,355.444122 73.313904,353.145660 64.103577,355.944580 
	C63.647213,356.083313 63.109814,355.965851 62.610607,355.951508 
	C51.647972,355.636139 40.686489,355.260193 29.721806,355.055786 
	C27.784512,355.019684 25.833902,355.697723 23.889441,356.045959 
	C21.009687,349.604065 18.129934,343.162140 15.629769,336.359558 
	C21.948931,335.970795 27.891277,336.046661 33.827377,335.888367 
	C41.240368,335.690674 48.645817,335.193085 56.059048,335.026978 
	C62.012852,334.893524 67.973450,335.095886 73.930931,335.086243 
	C81.836922,335.073425 89.745079,334.861969 97.648033,334.993317 
	C104.453445,335.106415 111.252098,335.819031 118.055077,335.840240 
	C128.962051,335.874268 139.872726,335.639038 150.774750,335.293640 
	C152.336792,335.244141 153.859222,333.943634 155.635376,333.492004 
	C158.482742,335.634460 161.021545,338.989441 163.719376,339.122620 
	C175.354843,339.697021 187.038574,339.426819 198.700928,339.233795 
	C201.781586,339.182831 204.848648,338.309906 208.253479,338.076782 
	C210.379272,338.559418 212.179153,339.006531 213.966934,338.962524 
	C224.403824,338.705536 234.836304,338.253021 245.273834,338.047485 
	C248.565170,337.982697 251.864426,338.606140 255.165466,338.683105 
	C260.442627,338.806183 265.726593,338.839508 271.003448,338.721893 
	C278.028839,338.565338 285.050140,338.227661 292.455872,338.146423 
	C294.745911,338.648376 296.651215,339.236877 298.560944,339.251587 
	C310.124725,339.340942 321.690460,339.212982 333.253448,339.343964 
	C337.866089,339.396179 341.539642,338.026154 344.465393,334.004639 
	C360.925171,334.336029 376.936096,334.777191 392.949982,334.966614 
	C406.600677,335.128113 420.254883,334.982239 433.907440,335.013092 
	C437.201324,335.020508 440.494598,335.200531 443.788635,335.280975 
	C450.544281,335.445984 457.299957,335.609192 464.056152,335.748535 
	C466.879059,335.806763 469.703339,335.796387 472.526886,335.827637 
	C477.295746,335.880432 482.064514,335.941528 486.833313,335.999146 
z"/>
<path fill="#0089FF" opacity="1.000000" stroke="none" 
	d="
M23.942968,356.412598 
	C25.833902,355.697723 27.784512,355.019684 29.721806,355.055786 
	C40.686489,355.260193 51.647972,355.636139 62.610607,355.951508 
	C63.109814,355.965851 63.647213,356.083313 64.103577,355.944580 
	C73.313904,353.145660 82.482529,355.444122 91.716896,355.800446 
	C102.646057,356.222137 113.628128,355.143188 124.591118,354.869537 
	C130.499451,354.722015 136.417740,355.006104 142.328186,354.903076 
	C151.367706,354.745544 160.403564,354.387482 169.442520,354.184174 
	C173.384949,354.095490 177.332520,354.116119 181.275528,354.196320 
	C193.022598,354.435211 204.768097,354.903381 216.515167,354.936340 
	C223.926193,354.957153 231.337631,354.154785 238.751373,354.107269 
	C244.048706,354.073273 249.348190,354.911194 254.650116,354.955902 
	C269.612885,355.082092 284.585632,355.303101 299.538391,354.896027 
	C309.934265,354.613037 320.366730,357.145782 330.774536,354.193451 
	C333.283203,353.481842 336.334045,354.960327 339.133484,354.948212 
	C353.550964,354.885834 367.967499,354.571503 382.384888,354.529205 
	C395.372559,354.491089 408.361206,354.793243 421.348877,354.753296 
	C431.711609,354.721436 442.072906,354.346680 452.436066,354.249634 
	C454.738525,354.228088 457.053131,355.004761 459.349609,354.943542 
	C465.652191,354.775452 471.948090,354.357330 478.680603,354.040161 
	C475.971283,360.618652 472.828033,367.195160 469.041321,373.693909 
	C467.266418,373.412598 466.130554,373.010864 465.004181,373.035889 
	C452.673950,373.310211 440.346680,373.739319 428.015564,373.945129 
	C418.755524,374.099701 409.491058,373.995605 400.228577,373.997864 
	C387.391815,374.000977 374.555023,373.994476 361.718262,373.994690 
	C347.836151,373.994904 333.954041,373.998840 320.071930,373.999786 
	C306.147491,374.000732 292.223083,373.997650 278.298645,374.000702 
	C265.540527,374.003540 252.782242,373.981476 240.024460,374.050507 
	C238.055313,374.061157 236.072906,374.795837 234.123260,374.692627 
	C225.394547,374.230713 216.682510,373.407532 207.950714,373.064575 
	C200.863373,372.786194 193.753525,372.878021 186.659119,373.041718 
	C180.258591,373.189392 173.864716,373.936798 167.469208,373.919922 
	C157.233307,373.892944 146.998444,373.242706 136.763245,373.245819 
	C126.397392,373.248993 116.032997,373.861511 105.665588,373.961426 
	C91.618286,374.096832 77.568192,374.074554 63.520325,373.974884 
	C53.068775,373.900726 42.618858,373.596252 32.168217,373.394379 
	C29.444311,367.855988 26.720402,362.317627 23.942968,356.412598 
z"/>
<path fill="#0086FF" opacity="1.000000" stroke="none" 
	d="
M32.366978,373.704163 
	C42.618858,373.596252 53.068775,373.900726 63.520325,373.974884 
	C77.568192,374.074554 91.618286,374.096832 105.665588,373.961426 
	C116.032997,373.861511 126.397392,373.248993 136.763245,373.245819 
	C146.998444,373.242706 157.233307,373.892944 167.469208,373.919922 
	C173.864716,373.936798 180.258591,373.189392 186.659119,373.041718 
	C193.753525,372.878021 200.863373,372.786194 207.950714,373.064575 
	C216.682510,373.407532 225.394547,374.230713 234.123260,374.692627 
	C236.072906,374.795837 238.055313,374.061157 240.024460,374.050507 
	C252.782242,373.981476 265.540527,374.003540 278.298645,374.000702 
	C292.223083,373.997650 306.147491,374.000732 320.071930,373.999786 
	C333.954041,373.998840 347.836151,373.994904 361.718262,373.994690 
	C374.555023,373.994476 387.391815,374.000977 400.228577,373.997864 
	C409.491058,373.995605 418.755524,374.099701 428.015564,373.945129 
	C440.346680,373.739319 452.673950,373.310211 465.004181,373.035889 
	C466.130554,373.010864 467.266418,373.412598 468.723022,373.862000 
	C465.275269,380.313538 461.502350,386.519196 456.982117,392.872772 
	C445.565826,392.680573 434.898804,392.223206 424.227142,392.050598 
	C419.011017,391.966217 413.776855,392.714630 408.567627,392.551117 
	C399.370270,392.262329 390.188965,391.215179 380.995056,391.131256 
	C370.933929,391.039398 360.868042,391.778900 350.800690,391.968781 
	C342.672119,392.122070 334.537079,392.082642 326.407349,391.963013 
	C321.611786,391.892456 316.817444,391.238800 312.028717,391.303558 
	C300.964386,391.453186 289.903778,392.124695 278.841766,392.121552 
	C269.245453,392.118835 259.641541,391.061920 250.055359,391.240784 
	C240.711258,391.415131 231.384552,393.863647 222.050919,391.057495 
	C221.445953,390.875580 220.728287,391.065369 220.063202,391.087006 
	C210.546371,391.396088 201.031326,391.821869 191.512009,391.965851 
	C186.893906,392.035706 182.261871,391.313507 177.646622,391.416962 
	C169.177521,391.606812 160.713455,392.501343 152.252319,392.437378 
	C143.055618,392.367950 133.866867,391.195129 124.670547,391.135773 
	C113.942184,391.066528 103.208351,391.971558 92.478798,391.932220 
	C76.280052,391.872772 60.082958,391.361603 43.885162,391.042419 
	C40.112026,385.366272 36.338882,379.690094 32.366978,373.704163 
z"/>
<path fill="#0083FF" opacity="1.000000" stroke="none" 
	d="
M43.939980,391.399323 
	C60.082958,391.361603 76.280052,391.872772 92.478798,391.932220 
	C103.208351,391.971558 113.942184,391.066528 124.670547,391.135773 
	C133.866867,391.195129 143.055618,392.367950 152.252319,392.437378 
	C160.713455,392.501343 169.177521,391.606812 177.646622,391.416962 
	C182.261871,391.313507 186.893906,392.035706 191.512009,391.965851 
	C201.031326,391.821869 210.546371,391.396088 220.063202,391.087006 
	C220.728287,391.065369 221.445953,390.875580 222.050919,391.057495 
	C231.384552,393.863647 240.711258,391.415131 250.055359,391.240784 
	C259.641541,391.061920 269.245453,392.118835 278.841766,392.121552 
	C289.903778,392.124695 300.964386,391.453186 312.028717,391.303558 
	C316.817444,391.238800 321.611786,391.892456 326.407349,391.963013 
	C334.537079,392.082642 342.672119,392.122070 350.800690,391.968781 
	C360.868042,391.778900 370.933929,391.039398 380.995056,391.131256 
	C390.188965,391.215179 399.370270,392.262329 408.567627,392.551117 
	C413.776855,392.714630 419.011017,391.966217 424.227142,392.050598 
	C434.898804,392.223206 445.565826,392.680573 456.674408,393.031677 
	C453.323578,398.282318 449.533142,403.522003 445.431183,408.899780 
	C434.344666,409.358582 423.571167,409.807404 412.793884,409.936768 
	C408.495453,409.988342 403.958771,408.297882 399.927673,409.191620 
	C386.729340,412.117676 373.633820,407.833771 360.397827,409.538391 
	C351.373138,410.700592 342.014130,409.007080 332.809082,409.089752 
	C319.036041,409.213409 305.267700,409.807404 291.495697,410.130615 
	C287.856812,410.216064 284.208832,409.921173 280.570190,410.010406 
	C270.667023,410.253265 260.764587,410.903900 250.865738,410.835632 
	C241.007828,410.767670 231.157104,409.747803 221.298553,409.657990 
	C212.762024,409.580200 204.218658,410.213715 195.679123,410.553223 
	C194.691345,410.592499 193.704880,410.884064 192.724380,410.852783 
	C184.645508,410.595154 176.567505,410.306915 168.490631,409.991913 
	C161.186234,409.707062 153.883209,409.140106 146.580368,409.152954 
	C141.996002,409.160980 137.421997,410.186951 132.826355,410.417053 
	C129.887222,410.564240 126.919212,409.972107 123.960503,409.920532 
	C113.894897,409.745026 103.827354,409.683746 93.761192,409.535522 
	C88.672447,409.460602 83.585579,409.233063 78.496880,409.190247 
	C75.682487,409.166565 72.865479,409.368134 70.050728,409.492676 
	C66.262978,409.660187 62.476269,409.851318 58.285713,410.036011 
	C53.253143,403.945190 48.623970,397.850708 43.939980,391.399323 
z"/>
<path fill="#0094FF" opacity="1.000000" stroke="none" 
	d="
M3.094376,286.418060 
	C11.459251,286.322205 19.749929,286.782990 28.045248,286.892639 
	C30.774712,286.928741 33.516075,286.055481 36.252247,285.599548 
	C37.224369,285.437531 38.205200,285.103790 39.168480,285.147491 
	C48.201023,285.557617 57.231728,286.423187 66.260803,286.397461 
	C79.883438,286.358673 93.502380,285.544281 107.126701,285.385254 
	C115.089684,285.292328 123.058609,285.910126 131.027649,286.058319 
	C135.630768,286.143951 140.243637,285.779114 144.844086,285.906677 
	C147.933121,285.992371 151.008072,286.585510 154.531433,287.440247 
	C154.926743,295.952942 154.879944,303.977020 154.424423,311.969360 
	C149.065201,311.775482 144.115036,311.602142 139.163895,311.462250 
	C138.345856,311.439148 137.514832,311.668915 136.704803,311.601532 
	C130.650085,311.097961 124.597107,310.077667 118.547401,310.103760 
	C101.187210,310.178650 83.829742,310.740051 66.469383,310.974335 
	C56.020512,311.115356 45.568207,310.992920 35.117477,311.009827 
	C31.837246,311.015137 28.550814,311.237152 25.278334,311.098175 
	C19.476263,310.851837 13.682694,310.405243 7.885568,310.042450 
	C6.264374,302.307617 4.643180,294.572784 3.094376,286.418060 
z"/>
<path fill="#0090FF" opacity="1.000000" stroke="none" 
	d="
M7.934209,310.452820 
	C13.682694,310.405243 19.476263,310.851837 25.278334,311.098175 
	C28.550814,311.237152 31.837246,311.015137 35.117477,311.009827 
	C45.568207,310.992920 56.020512,311.115356 66.469383,310.974335 
	C83.829742,310.740051 101.187210,310.178650 118.547401,310.103760 
	C124.597107,310.077667 130.650085,311.097961 136.704803,311.601532 
	C137.514832,311.668915 138.345856,311.439148 139.163895,311.462250 
	C144.115036,311.602142 149.065201,311.775482 154.494629,312.433167 
	C155.115692,319.693146 155.257843,326.457611 155.399979,333.222076 
	C153.859222,333.943634 152.336792,335.244141 150.774750,335.293640 
	C139.872726,335.639038 128.962051,335.874268 118.055077,335.840240 
	C111.252098,335.819031 104.453445,335.106415 97.648033,334.993317 
	C89.745079,334.861969 81.836922,335.073425 73.930931,335.086243 
	C67.973450,335.095886 62.012852,334.893524 56.059048,335.026978 
	C48.645817,335.193085 41.240368,335.690674 33.827377,335.888367 
	C27.891277,336.046661 21.948931,335.970795 15.588009,335.998993 
	C12.772056,327.620483 10.377453,319.241852 7.934209,310.452820 
z"/>
<path fill="#00ADFF" opacity="1.000000" stroke="none" 
	d="
M491.773590,181.618683 
	C483.138153,183.873016 474.437469,183.649292 465.697418,182.251938 
	C463.767822,181.943420 461.632751,181.880463 459.769379,182.373596 
	C450.871674,184.728317 442.016541,183.914520 433.107208,182.585754 
	C431.382385,182.328522 429.551880,182.873367 427.768097,182.897507 
	C424.718658,182.938782 421.667664,182.849915 418.617218,182.836807 
	C416.515717,182.827789 414.413544,182.889221 412.312531,182.859375 
	C399.603729,182.678925 386.895172,182.483490 374.186676,182.282791 
	C373.525970,182.272354 372.742767,181.903519 372.225372,182.146378 
	C363.646393,186.173080 354.816132,181.998917 345.629211,182.540680 
	C345.090607,171.598450 345.144165,161.118408 345.047150,150.639771 
	C344.980957,143.494629 341.310547,140.239990 334.359589,139.901459 
	C329.458252,139.662766 327.397583,143.000153 324.966248,146.005905 
	C316.629944,156.311707 308.377258,166.685120 299.676941,176.948944 
	C297.628143,176.580078 295.989075,176.019547 294.363068,176.055313 
	C284.888763,176.263580 275.418640,176.665710 265.944244,176.864853 
	C264.160065,176.902344 262.364502,176.308807 260.571228,176.025208 
	C258.785217,175.742722 256.967957,175.131683 255.211639,175.269028 
	C237.697784,176.638519 220.188080,176.796173 202.658096,175.594971 
	C201.780502,175.534836 200.823364,176.635620 199.607864,177.023468 
	C190.839188,166.212311 182.297028,155.627319 173.925613,144.908981 
	C170.447250,140.455429 165.652298,138.154114 161.003830,140.268738 
	C156.934341,142.119995 154.675064,145.590637 154.921219,150.575302 
	C155.207321,156.368423 154.889221,162.191406 154.423157,167.999451 
	C150.902359,167.933990 147.785782,167.716843 144.682373,167.837509 
	C137.123077,168.131439 129.568878,168.916275 122.014488,168.893097 
	C109.937065,168.856049 97.862381,168.260040 85.784073,168.029953 
	C80.034134,167.920410 74.278542,168.148987 68.525444,168.154633 
	C57.632240,168.165344 46.736736,168.253235 35.846577,168.060715 
	C28.949139,167.938828 22.059633,167.367950 15.166571,166.998444 
	C22.033224,152.244080 28.859653,137.470749 35.804035,122.753059 
	C37.037312,120.139282 38.761040,117.756912 40.965843,115.191208 
	C57.122742,119.259171 72.906326,116.367310 88.515877,117.236000 
	C97.865753,117.756332 107.282295,117.117882 116.667854,116.945160 
	C123.643372,116.816780 130.617874,116.434029 137.591736,116.459412 
	C149.512283,116.502808 161.431900,116.785942 173.352310,116.935631 
	C174.170639,116.945900 174.989517,116.589645 175.813049,116.564377 
	C179.911224,116.438652 184.019150,116.157608 188.108688,116.316498 
	C198.789246,116.731468 209.457153,117.571739 220.139587,117.801086 
	C226.851547,117.945206 233.582291,117.325645 240.301453,116.986473 
	C244.939087,116.752380 249.572479,116.162354 254.205750,116.183060 
	C259.801086,116.208069 265.395020,116.974556 270.988281,116.958961 
	C291.470123,116.901840 311.951294,116.527657 332.432922,116.514977 
	C349.935425,116.504143 367.437958,116.853432 384.940948,116.972702 
	C387.912598,116.992950 390.893097,116.437698 393.858490,116.524460 
	C403.905975,116.818390 413.946350,117.522301 423.993530,117.611099 
	C433.861725,117.698334 443.740356,117.350319 453.602051,116.914139 
	C456.129425,116.802353 458.610138,115.636986 461.112305,114.955643 
	C474.946259,135.373291 484.633331,157.705429 491.773590,181.618683 
z"/>
<path fill="#00B8FF" opacity="1.000000" stroke="none" 
	d="
M460.967346,114.633957 
	C458.610138,115.636986 456.129425,116.802353 453.602051,116.914139 
	C443.740356,117.350319 433.861725,117.698334 423.993530,117.611099 
	C413.946350,117.522301 403.905975,116.818390 393.858490,116.524460 
	C390.893097,116.437698 387.912598,116.992950 384.940948,116.972702 
	C367.437958,116.853432 349.935425,116.504143 332.432922,116.514977 
	C311.951294,116.527657 291.470123,116.901840 270.988281,116.958961 
	C265.395020,116.974556 259.801086,116.208069 254.205750,116.183060 
	C249.572479,116.162354 244.939087,116.752380 240.301453,116.986473 
	C233.582291,117.325645 226.851547,117.945206 220.139587,117.801086 
	C209.457153,117.571739 198.789246,116.731468 188.108688,116.316498 
	C184.019150,116.157608 179.911224,116.438652 175.813049,116.564377 
	C174.989517,116.589645 174.170639,116.945900 173.352310,116.935631 
	C161.431900,116.785942 149.512283,116.502808 137.591736,116.459412 
	C130.617874,116.434029 123.643372,116.816780 116.667854,116.945160 
	C107.282295,117.117882 97.865753,117.756332 88.515877,117.236000 
	C72.906326,116.367310 57.122742,119.259171 41.278999,115.036682 
	C55.485420,91.776627 73.513817,71.702103 95.604141,54.938496 
	C97.748367,55.922398 99.520889,57.814835 101.335449,57.856041 
	C113.258705,58.126816 125.191040,57.998920 137.120407,57.999771 
	C149.314133,58.000641 161.509552,58.124561 173.701019,57.958511 
	C182.615204,57.837101 191.524597,57.059284 200.435394,57.072243 
	C210.677261,57.087135 220.917007,57.842880 231.160187,57.914028 
	C238.899139,57.967781 246.640442,57.329655 254.383728,57.226440 
	C260.831848,57.140495 267.284210,57.395924 273.734985,57.480026 
	C284.487061,57.620205 295.240326,57.899342 305.991211,57.829674 
	C315.894318,57.765511 325.793793,57.170399 335.697021,57.097233 
	C341.609131,57.053555 347.524689,57.746693 353.439911,57.767597 
	C358.068420,57.783958 362.702881,56.993553 367.327515,57.059841 
	C376.958710,57.197891 386.585663,57.891655 396.213226,57.869446 
	C399.352905,57.862202 402.489075,56.342033 405.838165,55.203484 
	C408.441772,56.506779 411.038391,57.886631 413.194305,59.770741 
	C431.529480,75.794342 447.755768,93.678848 460.967346,114.633957 
z"/>
<path fill="#00A7FF" opacity="1.000000" stroke="none" 
	d="
M14.996966,167.342102 
	C22.059633,167.367950 28.949139,167.938828 35.846577,168.060715 
	C46.736736,168.253235 57.632240,168.165344 68.525444,168.154633 
	C74.278542,168.148987 80.034134,167.920410 85.784073,168.029953 
	C97.862381,168.260040 109.937065,168.856049 122.014488,168.893097 
	C129.568878,168.916275 137.123077,168.131439 144.682373,167.837509 
	C147.785782,167.716843 150.902359,167.933990 154.492401,168.463531 
	C154.925659,182.953644 154.879456,196.977737 154.833237,211.001801 
	C143.621323,210.990738 132.407913,211.084244 121.198074,210.926270 
	C115.229630,210.842178 109.269104,210.123611 103.301613,210.070251 
	C99.341118,210.034836 95.374039,210.940475 91.410988,210.931778 
	C87.161057,210.922470 82.908463,210.009293 78.663864,210.060165 
	C64.285538,210.232498 49.910965,210.863266 35.533504,210.915024 
	C25.339720,210.951721 15.143587,210.336349 4.557622,210.004852 
	C5.926481,201.351761 7.451972,192.649063 9.529613,184.080246 
	C10.879124,178.514450 13.033562,173.143845 14.996966,167.342102 
z"/>
<path fill="#0090FF" opacity="1.000000" stroke="none" 
	d="
M486.911804,335.617004 
	C482.064514,335.941528 477.295746,335.880432 472.526886,335.827637 
	C469.703339,335.796387 466.879059,335.806763 464.056152,335.748535 
	C457.299957,335.609192 450.544281,335.445984 443.788635,335.280975 
	C440.494598,335.200531 437.201324,335.020508 433.907440,335.013092 
	C420.254883,334.982239 406.600677,335.128113 392.949982,334.966614 
	C376.936096,334.777191 360.925171,334.336029 344.542664,333.589233 
	C344.471741,331.241150 344.985168,329.313049 345.031921,327.373688 
	C345.195587,320.585175 345.198273,313.792816 345.262146,307.001892 
	C356.345276,307.330444 367.428253,307.909485 378.511597,307.916931 
	C389.548370,307.924316 400.585358,307.139191 411.622711,307.127014 
	C418.018646,307.119965 424.410767,308.049408 430.814178,308.360809 
	C433.593262,308.495911 436.395905,308.033661 439.188721,308.019409 
	C448.744690,307.970612 458.303070,308.121613 467.856689,307.964050 
	C476.579407,307.820129 485.297150,307.374329 494.425171,307.029663 
	C492.218903,316.410126 489.604614,325.822510 486.911804,335.617004 
z"/>
<path fill="#FFFFFF" opacity="1.000000" stroke="none" 
	d="
M345.182068,306.539185 
	C345.198273,313.792816 345.195587,320.585175 345.031921,327.373688 
	C344.985168,329.313049 344.471741,331.241150 344.095062,333.589813 
	C341.539642,338.026154 337.866089,339.396179 333.253448,339.343964 
	C321.690460,339.212982 310.124725,339.340942 298.560944,339.251587 
	C296.651215,339.236877 294.745911,338.648376 292.302704,337.825806 
	C288.856720,334.819000 287.622833,331.741821 288.010071,327.835938 
	C288.266022,325.253998 287.943481,322.614746 287.959412,319.538330 
	C287.985870,311.717377 287.932831,304.359192 287.959290,296.538208 
	C287.986328,286.050598 287.933777,276.025818 287.961060,265.538300 
	C287.987000,252.384155 287.933136,239.692749 287.959015,226.538574 
	C288.048859,217.127579 288.201385,208.176331 288.010864,199.232376 
	C287.910828,194.536438 289.016998,190.612854 292.295532,187.085327 
	C295.171051,183.991409 297.514343,180.402847 300.092682,177.032761 
	C308.377258,166.685120 316.629944,156.311707 324.966248,146.005905 
	C327.397583,143.000153 329.458252,139.662766 334.359589,139.901459 
	C341.310547,140.239990 344.980957,143.494629 345.047150,150.639771 
	C345.144165,161.118408 345.090607,171.598450 345.181335,182.540741 
	C345.208191,201.361359 345.154968,219.719101 345.181641,238.539658 
	C345.208557,250.694046 345.155579,262.385620 345.182495,274.540100 
	C345.208954,285.360809 345.155457,295.718658 345.182068,306.539185 
z"/>
<path fill="#FFFFFF" opacity="1.000000" stroke="none" 
	d="
M154.902573,211.465836 
	C154.879456,196.977737 154.925659,182.953644 154.902618,168.465485 
	C154.889221,162.191406 155.207321,156.368423 154.921219,150.575302 
	C154.675064,145.590637 156.934341,142.119995 161.003830,140.268738 
	C165.652298,138.154114 170.447250,140.455429 173.925613,144.908981 
	C182.297028,155.627319 190.839188,166.212311 199.629120,177.368240 
	C202.615585,181.407272 204.996353,185.206390 208.035156,188.374344 
	C211.177887,191.650665 212.057358,195.294693 212.038574,199.591995 
	C211.985489,211.728348 212.111603,223.865479 212.098206,236.466354 
	C212.075043,254.621078 212.120789,272.311768 212.096939,290.466370 
	C212.073593,300.953949 212.119858,310.977631 212.096008,321.450287 
	C212.092667,327.574249 212.401840,333.311798 207.921951,337.814362 
	C204.848648,338.309906 201.781586,339.182831 198.700928,339.233795 
	C187.038574,339.426819 175.354843,339.697021 163.719376,339.122620 
	C161.021545,338.989441 158.482742,335.634460 155.635376,333.492004 
	C155.257843,326.457611 155.115692,319.693146 154.903351,312.464874 
	C154.879944,303.977020 154.926743,295.952942 154.903473,287.464905 
	C154.879730,276.310516 154.926056,265.620087 154.902832,254.465637 
	C154.879486,239.977707 154.925690,225.953781 154.902573,211.465836 
z"/>
<path fill="#018FFF" opacity="1.000000" stroke="none" 
	d="
M208.253479,338.076782 
	C212.401840,333.311798 212.092667,327.574249 212.554016,321.449890 
	C215.072739,321.000336 217.064987,321.052307 219.053696,320.990753 
	C226.651352,320.755615 234.248062,320.272522 241.844742,320.279999 
	C251.107925,320.289062 260.370575,320.867676 269.633759,320.875732 
	C275.715546,320.881012 281.797852,320.312592 287.879944,320.001129 
	C287.943481,322.614746 288.266022,325.253998 288.010071,327.835938 
	C287.622833,331.741821 288.856720,334.819000 291.920044,337.647217 
	C285.050140,338.227661 278.028839,338.565338 271.003448,338.721893 
	C265.726593,338.839508 260.442627,338.806183 255.165466,338.683105 
	C251.864426,338.606140 248.565170,337.982697 245.273834,338.047485 
	C234.836304,338.253021 224.403824,338.705536 213.966934,338.962524 
	C212.179153,339.006531 210.379272,338.559418 208.253479,338.076782 
z"/>
<path fill="#00A4FF" opacity="1.000000" stroke="none" 
	d="
M212.167114,236.002289 
	C212.111603,223.865479 211.985489,211.728348 212.038574,199.591995 
	C212.057358,195.294693 211.177887,191.650665 208.035156,188.374344 
	C204.996353,185.206390 202.615585,181.407272 199.924530,177.540619 
	C200.823364,176.635620 201.780502,175.534836 202.658096,175.594971 
	C220.188080,176.796173 237.697784,176.638519 255.211639,175.269028 
	C256.967957,175.131683 258.785217,175.742722 260.571228,176.025208 
	C262.364502,176.308807 264.160065,176.902344 265.944244,176.864853 
	C275.418640,176.665710 284.888763,176.263580 294.363068,176.055313 
	C295.989075,176.019547 297.628143,176.580078 299.676941,176.948944 
	C297.514343,180.402847 295.171051,183.991409 292.295532,187.085327 
	C289.016998,190.612854 287.910828,194.536438 288.010864,199.232376 
	C288.201385,208.176331 288.048859,217.127579 287.543701,226.536591 
	C283.044617,226.998367 279.040619,226.999344 274.907318,226.667236 
	C272.438843,220.223068 269.206207,217.864258 262.963287,217.843033 
	C253.974854,217.812469 244.985825,217.783508 235.997833,217.853271 
	C228.898895,217.908356 225.789078,220.926804 225.321487,228.035217 
	C225.169037,230.352905 225.125427,232.677765 224.582169,234.999542 
	C220.143906,235.333923 216.155502,235.668106 212.167114,236.002289 
z"/>
<path fill="#0092FF" opacity="1.000000" stroke="none" 
	d="
M287.959412,319.538330 
	C281.797852,320.312592 275.715546,320.881012 269.633759,320.875732 
	C260.370575,320.867676 251.107925,320.289062 241.844742,320.279999 
	C234.248062,320.272522 226.651352,320.755615 219.053696,320.990753 
	C217.064987,321.052307 215.072739,321.000336 212.624115,321.000916 
	C212.119858,310.977631 212.073593,300.953949 212.535583,290.465820 
	C217.039856,290.333984 221.035904,290.666626 225.135086,291.457855 
	C225.253708,297.074982 225.238449,302.233826 225.294083,307.391907 
	C225.341110,311.754089 229.561905,316.606812 233.694290,316.655060 
	C244.009308,316.775574 254.333038,316.883484 264.640656,316.574860 
	C269.417236,316.431854 273.286285,314.160187 274.030334,308.797852 
	C274.526764,305.220184 274.724060,301.601013 275.490784,298.000183 
	C279.910797,297.667023 283.895294,297.334015 287.879761,297.001007 
	C287.932831,304.359192 287.985870,311.717377 287.959412,319.538330 
z"/>
<path fill="#009CFF" opacity="1.000000" stroke="none" 
	d="
M275.036621,227.000320 
	C279.040619,226.999344 283.044617,226.998367 287.463928,226.999359 
	C287.933136,239.692749 287.987000,252.384155 287.541992,265.538361 
	C283.047028,266.000946 279.050934,266.000763 274.963989,265.539490 
	C274.927612,252.385742 274.982117,239.693039 275.036621,227.000320 
z"/>
<path fill="#0097FF" opacity="1.000000" stroke="none" 
	d="
M275.054871,266.000549 
	C279.050934,266.000763 283.047028,266.000946 287.462158,266.001099 
	C287.933777,276.025818 287.986328,286.050598 287.959290,296.538208 
	C283.895294,297.334015 279.910797,297.667023 275.399780,297.539185 
	C274.933807,286.719086 274.994324,276.359833 275.054871,266.000549 
z"/>
<path fill="#0099FF" opacity="1.000000" stroke="none" 
	d="
M225.031937,290.999268 
	C221.035904,290.666626 217.039856,290.333984 212.605194,290.001892 
	C212.120789,272.311768 212.075043,254.621078 212.098206,236.466339 
	C216.155502,235.668106 220.143906,235.333923 224.683929,235.458771 
	C225.167694,254.278305 225.099808,272.638794 225.031937,290.999268 
z"/>
<path fill="#FFFFFF" opacity="1.000000" stroke="none" 
	d="
M225.135086,291.457886 
	C225.099808,272.638794 225.167694,254.278305 225.133804,235.458588 
	C225.125427,232.677765 225.169037,230.352905 225.321487,228.035217 
	C225.789078,220.926804 228.898895,217.908356 235.997833,217.853271 
	C244.985825,217.783508 253.974854,217.812469 262.963287,217.843033 
	C269.206207,217.864258 272.438843,220.223068 274.907318,226.667236 
	C274.982117,239.693039 274.927612,252.385742 274.963989,265.539490 
	C274.994324,276.359833 274.933807,286.719086 274.964233,297.539368 
	C274.724060,301.601013 274.526764,305.220184 274.030334,308.797852 
	C273.286285,314.160187 269.417236,316.431854 264.640656,316.574860 
	C254.333038,316.883484 244.009308,316.775574 233.694290,316.655060 
	C229.561905,316.606812 225.341110,311.754089 225.294083,307.391907 
	C225.238449,302.233826 225.253708,297.074982 225.135086,291.457886 
z"/>
</svg>